<svg xmlns="http://www.w3.org/2000/svg" viewBox="0 0 64 64" role="img" aria-label="Ainu Textual Sources">
  <rect width="64" height="64" rx="14" fill="#843123" />
  
  <g fill="#f4ecd9">
    <path d="M32 19c-5-3-12.5-3.6-17.5-2.3a1.6 1.6 0 0 0-1.2 1.6v26.5c0 1 .9 1.7 1.9 1.5C20 45.2 27 45.7 32 48.4Z" />
    <path d="M32 19c5-3 12.5-3.6 17.5-2.3a1.6 1.6 0 0 1 1.2 1.6v26.5c0 1-.9 1.7-1.9 1.5C44 45.2 37 45.7 32 48.4Z" />
  </g>
  <g stroke="#843123" stroke-width="1.7" stroke-linecap="round" opacity="0.45">
    <line x1="20" y1="25" x2="28.5" y2="26.4" /><line x1="20" y1="31" x2="28.5" y2="32.4" />
    <line x1="20" y1="37" x2="28.5" y2="38.4" /><line x1="35.5" y1="26.4" x2="44" y2="25" />
    <line x1="35.5" y1="32.4" x2="44" y2="31" /><line x1="35.5" y1="38.4" x2="44" y2="37" />
  </g>
  <line x1="32" y1="19" x2="32" y2="48.4" stroke="#843123" stroke-width="1.4" opacity="0.4" /></svg>
